<svg id="logo" xmlns="http://www.w3.org/2000/svg" viewBox="0 0 188.05 259.83"><defs><style>.cls-1{fill:#cbf7f2;}.cls-2{fill:#f4ea71;}.cls-3{fill:#69f0ae;}.cls-4{fill:#008e76;}.cls-5{fill:#fff;}.cls-6{fill:none;stroke:#0b5446;stroke-miterlimit:10;}</style></defs><text x="-620.28" y="-204.71"/><path class="cls-1" d="M777.39,253.06c1.74,16.18-6.48,30.9-8.07,33.76-4.43,7.92-7.09,8.5-16.83,20-19.56,23.11-19.62,33.52-27.45,34-5.73.35-7.48-5.1-30.45-31.2-12.24-13.9-14-14.87-17.07-20.64-1.73-3.2-10-18.44-7.56-35.92,3-21.67,22.34-47.3,51.84-48.32C752.68,203.68,774.94,230.3,777.39,253.06Z" transform="translate(-620.28 -204.71)"/><circle class="cls-2" cx="103.3" cy="50.69" r="26.34"/><path class="cls-3" d="M743,320.3s-11.72,19.24-15.54,20.38a3.37,3.37,0,0,1-.8.14c-2.63.2-5.3-1.11-18.08-17.28-7.42-9.4-7.29-10.84-9.6-12.78-2.51-2.1-4.66-3.24-8.85-6.94a79.66,79.66,0,0,1-6.24-6.12A58,58,0,0,1,671.51,274a58.94,58.94,0,0,1-1.85-12.73l29.52,35.49q4.34-11.44,8.65-22.9c10.86,30.21,16.87,35.89,20.38,35.21,7.39-1.41,7.53-31.66,14.23-32.18,3.29-.26,6.38,6.75,8.27,11.88l24.92-16.25a82.08,82.08,0,0,1-5.09,12c-2.54,4.87-5.44,9.26-12.38,17.92C745.66,318,746.49,314.54,743,320.3Z" transform="translate(-620.28 -204.71)"/><path class="cls-4" d="M736.55,330c-8.14,11.08-9.42,11.73-10.82,11.83-1.75.12-3.52-.64-12-10-9.2-10.14-7.68-9.87-13.5-15.81-4.78-4.89-7.77-7.06-10.1-12.24A27.5,27.5,0,0,1,688,296l19.56,20.45,5.73-13.19c7.19,17.4,11.18,20.68,13.5,20.29,4.9-.82,5-18.25,9.43-18.55,2.18-.15,4.23,3.89,5.48,6.85l16.51-9.36a39.6,39.6,0,0,1-4.61,6.9,41.61,41.61,0,0,1-4.77,4.82C745,317.57,744.21,319.59,736.55,330Z" transform="translate(-620.28 -204.71)"/><path class="cls-5" d="M707.1,262.39c-2.46,3.57-6.65,4.39-7.86,4.58-.37.22-5.15,2.82-9.48.41a8.61,8.61,0,0,1-3.25-3.24,8.57,8.57,0,0,1-10.07,0,8.31,8.31,0,0,1-2.88-9.36c.17-.46,1.53-3.88,4.68-4.32,2.71-.37,5.7,1.64,6.84,5-1.14-5.47,2-9.77,4.68-10.08s6.63,3.13,6.84,8.64c.34-.51,5.07-7.47,8.64-6.48S710.75,257.11,707.1,262.39Z" transform="translate(-620.28 -204.71)"/><path class="cls-5" d="M766,273.89c-2.47,3.57-6.65,4.39-7.86,4.58-.38.21-5.15,2.82-9.49.41a8.64,8.64,0,0,1-3.24-3.24,8.62,8.62,0,0,1-10.08,0,8.32,8.32,0,0,1-2.88-9.36c.18-.46,1.54-3.89,4.68-4.32,2.72-.37,5.71,1.63,6.84,5-1.13-5.47,2-9.77,4.68-10.08s6.64,3.13,6.84,8.64c.35-.52,5.07-7.47,8.64-6.48S769.6,268.61,766,273.89Z" transform="translate(-620.28 -204.71)"/><path class="cls-6" d="M670,253.06s-35.69,22.28-9.12,40.48c25.92,17.76,120.48,10.08,142.08-34.08s-35-30.52-35-30.52" transform="translate(-620.28 -204.71)"/></svg>